<svg version="1.1" id="Layer_3" xmlns="http://www.w3.org/2000/svg" 
	 width="2752.575px" height="630.34px" viewBox="0 0 2752.575 630.34" fill="currentColor">
<g>
	<g>
		<path fill="currentColor" d="M754.007,176.608l77.063,217.574l76.646-217.574h81.178v299.988h-62.02v-82l6.18-141.55l-80.969,223.55
			h-42.445l-80.766-223.344l6.183,141.344v82h-61.813V176.608H754.007z"/>
	</g>
	<g>
		<path fill="currentColor" d="M1038.546,195.975c0-8.926,2.986-16.276,8.965-22.047c5.97-5.77,14.113-8.652,24.413-8.652
			c10.159,0,18.266,2.883,24.309,8.652c6.049,5.771,9.069,13.121,9.069,22.047c0,9.064-3.057,16.481-9.17,22.252
			c-6.111,5.77-14.184,8.655-24.208,8.655c-10.028,0-18.104-2.886-24.212-8.655C1041.599,212.456,1038.546,205.039,1038.546,195.975
			z M1101.796,476.597h-59.748V253.664h59.748V476.597z"/>
	</g>
	<g>
		<path fill="currentColor" d="M1280.017,476.597c-2.75-5.355-4.735-12.019-5.977-19.984c-14.422,16.069-33.169,24.105-56.246,24.105
			c-21.838,0-39.938-6.317-54.291-18.956c-14.354-12.633-21.529-28.565-21.529-47.801c0-23.623,8.755-41.754,26.271-54.391
			c17.511-12.639,42.817-19.027,75.925-19.163h27.402v-12.774c0-10.303-2.646-18.543-7.932-24.726
			c-5.293-6.179-13.636-9.272-25.036-9.272c-10.025,0-17.891,2.407-23.592,7.213c-5.699,4.81-8.549,11.404-8.549,19.781h-59.549
			c0-12.912,3.987-24.863,11.955-35.852c7.963-10.986,19.229-19.604,33.789-25.857c14.554-6.248,30.903-9.376,49.039-9.376
			c27.465,0,49.27,6.903,65.412,20.708c16.139,13.805,24.211,33.208,24.211,58.203v96.633c0.134,21.152,3.092,37.157,8.86,48.006
			v3.503H1280.017L1280.017,476.597z M1230.775,435.182c8.789,0,16.896-1.957,24.313-5.871c7.419-3.914,12.909-9.168,16.484-15.762
			v-38.322h-22.252c-29.812,0-45.674,10.301-47.596,30.905l-0.205,3.503c0,7.416,2.607,13.532,7.831,18.336
			C1214.568,432.782,1221.71,435.182,1230.775,435.182z"/>
	</g>
	<g>
		<path fill="currentColor" d="M1501.918,176.608h61.813v207.684c0,19.094-4.227,35.953-12.672,50.581
			c-8.449,14.631-20.363,25.93-35.746,33.895c-15.389,7.967-32.764,11.95-52.129,11.95c-31.73,0-56.453-8.067-74.174-24.212
			c-17.717-16.135-26.577-38.971-26.577-68.506h62.223c0,14.698,3.09,25.549,9.27,32.553c6.18,7.01,15.936,10.511,29.26,10.511
			c11.811,0,21.219-4.052,28.229-12.157c7.002-8.104,10.506-19.64,10.506-34.613V176.608H1501.918z"/>
	</g>
	<g>
		<path fill="currentColor" d="M1746.28,453.932c-14.699,17.857-35.029,26.786-60.988,26.786c-23.9,0-42.133-6.868-54.705-20.604
			c-12.564-13.733-18.986-33.857-19.264-60.368V253.664h59.547v144.188c0,23.24,10.574,34.859,31.729,34.859
			c20.191,0,34.064-7.011,41.617-21.042V253.664h59.752v222.933h-56.043L1746.28,453.932z"/>
	</g>
	<g>
		<path fill="currentColor" d="M2049.565,367.189c0,34.341-7.799,61.848-23.387,82.52c-15.59,20.674-36.643,31.009-63.148,31.009
			c-22.527,0-40.73-7.831-54.602-23.486v105.075h-59.543V253.664h55.219l2.057,21.842c14.426-17.306,33.242-25.962,56.457-25.962
			c27.469,0,48.83,10.168,64.078,30.495c15.246,20.328,22.869,48.35,22.869,84.061V367.189L2049.565,367.189z M1990.02,362.865
			c0-20.74-3.678-36.743-11.025-48.006c-7.346-11.264-18.025-16.896-32.037-16.896c-18.68,0-31.525,7.145-38.527,21.428v91.275
			c7.279,14.698,20.26,22.045,38.939,22.045C1975.803,432.711,1990.02,409.428,1990.02,362.865z"/>
	</g>
	<g>
		<path fill="currentColor" d="M2086.032,195.975c0-8.926,2.988-16.276,8.963-22.047c5.975-5.77,14.113-8.652,24.418-8.652
			c10.164,0,18.264,2.883,24.309,8.652c6.047,5.771,9.068,13.121,9.068,22.047c0,9.064-3.061,16.481-9.17,22.252
			c-6.111,5.77-14.184,8.655-24.207,8.655c-10.031,0-18.1-2.886-24.213-8.655C2089.088,212.456,2086.032,205.039,2086.032,195.975z
			 M2149.286,476.597h-59.75V253.664h59.75V476.597z"/>
	</g>
	<g>
		<path fill="currentColor" d="M2269.612,198.861v54.803h38.115v43.68h-38.115v111.262c0,8.238,1.578,14.148,4.736,17.718
			c3.158,3.576,9.201,5.356,18.131,5.356c6.596,0,12.43-0.479,17.516-1.44v45.123c-11.678,3.567-23.693,5.355-36.055,5.355
			c-41.762,0-63.049-21.083-63.875-63.254v-120.12h-32.553v-43.68h32.553v-54.803H2269.612z"/>
	</g>
	<g>
		<path fill="currentColor" d="M2443.506,480.718c-32.691,0-59.309-10.026-79.84-30.081c-20.537-20.053-30.805-46.772-30.805-80.146
			v-5.77c0-22.391,4.33-42.408,12.982-60.061c8.65-17.647,20.91-31.247,36.775-40.795c15.867-9.545,33.961-14.321,54.291-14.321
			c30.494,0,54.496,9.618,72.01,28.847s26.27,46.495,26.27,81.794v24.313h-141.959c1.92,14.563,7.723,26.238,17.41,35.027
			c9.684,8.791,21.941,13.186,36.779,13.186c22.938,0,40.863-8.309,53.773-24.932l29.26,32.763
			c-8.936,12.636-21.02,22.493-36.268,29.563C2478.946,477.181,2462.047,480.718,2443.506,480.718z M2436.708,297.551
			c-11.814,0-21.396,4.002-28.742,12.004c-7.35,8.005-12.053,19.456-14.115,34.354h82.828v-4.761
			c-0.275-13.242-3.85-23.487-10.711-30.729C2459.092,301.171,2449.34,297.551,2436.708,297.551z"/>
	</g>
	<g>
		<path fill="currentColor" d="M2694.25,309.502c-8.104-1.099-15.248-1.648-21.43-1.648c-22.527,0-37.293,7.621-44.297,22.869v145.874
			h-59.541V253.664h56.244l1.648,26.581c11.951-20.467,28.5-30.701,49.654-30.701c6.596,0,12.771,0.896,18.543,2.681
			L2694.25,309.502z"/>
	</g>
</g>
<circle cx="322.001" cy="312.815" r="303.491"/>
<path d="M481.205,470.578l0.512-0.131c-5.859-7.853-17.808-26.558-20.997-41.486c-1.853-8.755-11.931-27.514-24.5-45.512
	c-8.724-12.529-25.574-34.605-41.143-43.029c0.022-1.954-0.309-4.001-1.111-6.148c-3.366-8.613-11.13-9.481-17.95-10.306
	c-0.566-0.075-1.132-0.147-1.694-0.222c-8.89-9.556-22.448-25.59-24.251-31.555c-1.334-4.457-3.001-14.086-4.644-23.342
	c-1.806-10.337-3.479-20.131-5.109-25.449c-3.989-13.038-12.396-20.6-23.835-21.49c-1.197-1.582-2.587-2.941-4.165-4.063
	c-2.215-1.552-4.902-2.136-7.757-1.632c-7.467,1.35-16.692,10.275-28.982,28.096c-4.948,7.227-39.552,53.369-52.952,70.656
	c-9.978-10.688-32.208-35.492-36.42-44.67c-3.334-7.27-10.169-15.433-17.843-21.356c-12.11-9.354-21.955-10.319-28.077-9.433
	c-7.409,1.063-10.577,4.857-11.913,7.859c-3.281,7.351,0.273,18.217,11.045,34.138c9.597,14.118,32.782,50.851,48.078,75.142
	c13.965,22.16,29.68,42.365,33.533,47.236c0.345,4.417,0.663,8.902,0.934,13.127c0.634,9.609,1.148,17.154,2.183,21.226
	c2.357,9.12,14.136,19.075,18.586,22.555c1.26,6.427,5.011,12.414,10.737,17.069c5.036,4.082,11.318,6.93,17.97,8.185
	c0.371,1.385,0.776,2.703,1.239,3.894c2.957,7.889,7.589,11.733,14.157,15.397c7.298,4.057,26.613,8.805,47.052,13.813
	c16.824,4.101,34.182,8.343,42.859,11.863c13.497,5.418,16.738,14.284,21.148,26.525c1.105,3.184,2.345,6.427,3.784,9.814
	c0.567,1.35,1.709,2.278,3.016,2.651c0.553,0.372,8.183,12.56,8.884,12.666c4.265,0.627,15.34-2.623,26.512-7.065l25.335-14.138
	c9.98-3.989,34.038-16.873,45.956-27.679l4.713-4.124c2.298-1.172-1.569-7.338-2.699-9.648
	C505.003,503.48,486.869,478.172,481.205,470.578z M304.168,319.029c-6.652,1.391-13.446,2.83-19.709,4.248
	c3.117-7.672,7.495-17.937,11.57-26.427v-0.005C298.31,304.967,301.839,313.575,304.168,319.029z"/>
<g>
	<path fill="#FFFFFF" d="M211.33,350.037l-0.007,0.002c0.197,10.743,2.26,22.463,5.319,29.871c0.637,1.517,1.197,3.443,1.662,5.725
		c-6.599-8.844-15.326-21.133-23.5-34.045c-15.465-24.509-38.793-61.494-48.543-75.815c-12.105-17.796-10.959-23.895-10.316-25.314
		c0.542-1.276,2.153-2.104,4.747-2.462c13.873-1.99,31.088,14.09,36.385,25.613c5.791,12.6,35.267,44.139,39.576,48.726
		C212.083,330.768,211.228,341.764,211.33,350.037z"/>
	<path fill="#FFFFFF" d="M320.967,254.75c1.537-6.994,1.836-14.27,0.819-20.487c-0.16-0.923-0.347-1.78-0.537-2.636
		c1.486,0.678,2.825,1.572,4.108,2.757c2.677,2.55,4.765,6.224,6.187,10.94c1.458,4.82,3.187,14.808,4.846,24.447
		c1.744,10.039,3.357,19.523,4.894,24.588c1.71,5.707,9.157,15.398,15.893,23.381c-6.812-3.34-14.414-6.461-32.104-3.256
		l0.076,0.026c-3.582,0.643-7.564,1.379-11.727,2.225c-3.839-8.715-10.239-24.801-10.567-33.102c0.337-0.442,0.625-0.87,0.926-1.245
		c1.6-1.967,3.168-3.709,4.641-5.414C313.907,270.726,318.614,265.344,320.967,254.75z"/>
	<path fill="#FFFFFF" d="M446.568,570.301c-6.203,2.484-21.087,12.844-26.513,12.367c-1.004-2.503-12.118-24.982-12.991-27.364
		c-3.646-10.031-7.14-19.628-16.706-26.682c4.653-0.527,8.831-1.49,12.513-2.767c14.74-5.115,22.168-15.021,26.352-20.655
		c0.494-0.607,0.896-1.179,1.312-1.705c1.582-2.015,1.218-4.933-0.794-6.513c-2.02-1.584-4.935-1.222-6.519,0.793
		c-0.448,0.594-0.896,1.18-1.42,1.852c-3.394,4.489-8.469,11.299-17.794,15.73c-11.525,5.464-26.715,5.848-45.144,1.269
		c-7.118-1.874-14.971-3.823-22.667-5.655c-18.174-4.453-38.765-9.475-44.979-12.968c-10.248-5.729-11.542-9.139-15.025-40.306
		c-2.808-24.985,4.219-57.781,7.553-73.551c0.657-3.104,1.167-5.562,1.438-7.123c0.012-0.111,0.535-2.681,9.917-6.81
		c6.65-2.905,15.333-5.592,22.995-7.923c2.805-0.864,5.404-1.66,7.846-2.45c16.382-5.25,23.288-5.522,34.582,2.882
		c4.322,3.225,7.854,5.422,10.706,7.204c6.164,3.835,7.479,4.796,8.111,8.646c0.067,0.196,0.067,0.522-0.653,1.096
		c-3.488,2.787-14.153,3.822-21.253,1.074c-0.373-0.146-9.264-3.524-18.121,2.266c-6.825,4.433-16.604,10.382-16.687,10.462
		c-1.436,0.879-2.288,2.475-2.256,4.151c0.051,0.141,0.278,8.922-0.314,18.955l0.046,0.147c-0.534,7.845-1.566,16.453-3.638,22.388
		c-0.843,2.413,0.405,5.073,2.82,5.924c2.408,0.845,5.073-0.408,5.923-2.818c1.207-3.404,2.116-7.521,2.76-11.77
		c2.17,3.764,4.251,7.706,6,11.499c4.119,8.894,5.305,14.347,5.102,16.264c-0.258,2.536,1.568,4.832,4.122,5.139
		c0.683,0.096,1.415,0,2.042-0.216c1.646-0.569,2.929-2.047,3.106-3.898c0.593-5.639-2.912-14.632-5.896-21.2
		c-3.649-7.855-8.329-16.012-13.034-22.522c0.34-6.529,0.35-12.29,0.279-15.467c3.366-2.035,9.76-5.996,14.624-9.202
		c4.703-3.047,9.315-1.498,9.621-1.387c4.404,1.729,10.155,2.506,15.789,2.125c3.573-0.207,10.214-1.1,14.631-4.641
		c3.183-2.569,4.637-6.063,4.036-9.819c-1.287-8.243-5.918-11.086-12.359-15.099c-2.7-1.672-6.087-3.754-10.067-6.775
		c-14.52-10.822-24.961-10.076-43.007-4.305c-2.392,0.775-4.995,1.572-7.745,2.414c-7.905,2.418-16.901,5.16-24.004,8.326
		c-9.718,4.241-14.485,8.506-15.379,13.758c-0.223,1.379-0.75,3.789-1.392,6.785c-3.482,16.245-10.651,50.071-7.71,76.536
		c0.787,7.107,1.475,13.013,2.216,17.966c-9.728-2.977-17.024-10.227-17.968-18.43c-0.421-3.868-0.708-12.675-0.718-23.646
		c-0.017-2.545-2.103-4.644-4.652-4.631c-2.547,0.019-4.645,2.102-4.633,4.649c-0.016,5.111,0.058,9.7,0.165,13.63
		c-4.105-4.007-7.896-8.505-8.748-11.896c-0.847-3.235-1.387-11.193-1.928-19.647c-0.998-14.91-2.128-31.787-5.659-40.236
		c-2.145-5.229-4.441-15.455-4.631-26.469c-0.206-11.555,1.931-20.715,5.967-25.859c10.369-13.151,51.031-67.233,56.467-75.205
		c14.335-20.833,20.907-23.98,23.062-24.348c0.567-0.085,0.711,0.026,0.778,0.056c3.603,2.555,5.06,7.53,5.691,11.224
		c0.792,5.101,0.561,11.159-0.716,17.032c-1.816,8.232-5.284,12.154-10.457,18.074c-1.44,1.641-3.121,3.527-4.832,5.643
		c-0.688,0.837-1.375,1.832-2.121,2.965c-0.109,0.148-0.179,0.275-0.287,0.424c-7.613,12.037-18.366,38.961-20.997,45.627
		c-5.888,1.502-10.547,2.791-13.066,3.828c-5.297,2.109-8.41,5.524-10.458,11.344c-1.841,5.199-3.01,12.777-4.784,24.252
		c-1.39,8.847-2.17,21.771-2.573,31.092c-0.132,2.602,1.859,4.729,4.457,4.862c2.549,0.148,4.733-1.859,4.865-4.457
		c0.604-12.975,1.431-23.417,2.484-30.081c3.519-22.889,4.386-26.346,9.493-28.385c7.347-2.927,40.615-10.232,63.209-14.33
		c15.691-2.834,20.938-0.258,27.569,3.037c2.351,1.143,4.983,2.453,8.145,3.586c4.628,1.6,8.939,2.112,12.776,2.52
		c6.839,0.773,9.158,1.333,10.41,4.48c2.281,5.78-4.285,10.504-4.64,10.73c-2.109,1.438-2.626,4.331-1.188,6.441
		c1.208,1.75,3.455,2.439,5.345,1.781c0.394-0.131,0.762-0.313,1.118-0.545c1.881-1.307,4.343-3.625,6.199-6.551
		c10.042,6.07,23.279,20.271,36.638,39.48c13.236,19.028,21.8,36.047,23.151,42.421c3.529,16.591,15.979,36.331,22.761,45.384
		c5.205,6.955,26.875,34.818,35.563,50.729C504.244,545.431,455.054,566.932,446.568,570.301z"/>
</g>
<path d="M399.463,434.122c-10.246-4.604-21.839-6.411-34.371-5.305c-2.563,0.239-4.44,2.462-4.198,5.021
	c0.238,2.564,2.46,4.441,5.022,4.199c10.961-0.939,20.994,0.549,29.77,4.521c6.595,2.952,12.282,7.351,15.616,11.977
	c1.229,1.679,3.401,2.33,5.281,1.679c0.438-0.149,0.806-0.334,1.192-0.63c2.08-1.477,2.523-4.389,1.047-6.468
	c-2.516-3.501-8.359-10.063-19.32-15.007L399.463,434.122z"/>
<g>
	<g>
		<path fill="#FFFFFF" d="M284.394,137.223c-0.234,5.021-3.772,8.92-7.905,8.709c-4.138-0.211-7.296-4.451-7.064-9.474
			c0.234-5.028,3.77-8.926,7.905-8.718C281.465,127.954,284.625,132.193,284.394,137.223z"/>
	</g>
	<g>
		<path fill="#FFFFFF" d="M461.864,101.009c-0.273,5.925-4.453,10.519-9.334,10.271c-4.876-0.249-8.604-5.249-8.329-11.175
			c0.272-5.924,4.443-10.53,9.322-10.283C458.407,90.074,462.14,95.081,461.864,101.009z"/>
	</g>
	<g>
		<path fill="#FFFFFF" d="M419.586,249.051c-0.311,6.682-5.027,11.875-10.529,11.595c-5.51-0.282-9.722-5.933-9.417-12.614
			c0.315-6.689,5.029-11.885,10.538-11.603C415.683,236.709,419.894,242.358,419.586,249.051z"/>
	</g>
	<g>
		<polygon fill="#FFFFFF" points="375.014,73.582 409.461,83.463 378.547,101.068 379.198,137.101 354.344,112.596 322.099,124.678 
			336.813,91.602 316.046,63.279 350.41,68.069 369.751,36.967 		"/>
	</g>
	<g>
		<path fill="#FFFFFF" d="M217.468,218.125c-0.25,5.36-4.038,9.523-8.453,9.299c-4.418-0.227-7.801-4.754-7.553-10.117
			c0.25-5.376,4.033-9.537,8.454-9.312C214.333,208.219,217.718,212.748,217.468,218.125z"/>
	</g>
	<g>
		<path fill="#FFFFFF" d="M141.549,217.695c-2.332-12.689-8.287-22.658-17.875-29.908c-9.577-7.232-19.614-9.346-30.112-6.336
			l-0.29-1.553c10.494-3.007,18.792-10.38,24.903-22.122c6.097-11.739,7.981-23.941,5.646-36.642l1.296-0.366
			c2.315,12.649,8.278,22.608,17.869,29.868c9.588,7.272,19.616,9.385,30.112,6.377l0.285,1.551
			c-10.487,3.01-18.788,10.38-24.887,22.122c-6.108,11.728-7.988,23.938-5.661,36.642L141.549,217.695L141.549,217.695z"/>
	</g>
	<g>
		<path fill="#FFFFFF" d="M196.756,89.92c-3.811-12.903-11.17-22.582-22.071-29.041l0.713-1.328
			c10.903,6.463,22.594,8.072,35.09,4.83c12.499-3.242,21.643-10.262,27.454-21.059l1.336,0.792
			c-5.789,10.765-6.792,22.61-2.989,35.534c3.795,12.916,11.158,22.602,22.063,29.063l-0.713,1.324
			c-10.901-6.461-22.608-8.079-35.093-4.828c-12.495,3.232-21.643,10.262-27.448,21.052l-1.34-0.794
			C199.563,114.676,200.574,102.822,196.756,89.92z"/>
	</g>
	<g>
		<path fill="#FFFFFF" d="M471.7,182.184c-4.251-17.506-13.286-30.602-27.104-39.258l0.998-1.803
			c13.818,8.651,28.938,10.695,45.336,6.131c16.414-4.566,28.686-14.238,36.83-29.006l1.688,1.06
			c-8.101,14.72-10.041,30.866-5.812,48.41c4.239,17.527,13.263,30.614,27.095,39.283l-0.996,1.807
			c-13.83-8.657-28.941-10.7-45.353-6.136c-16.414,4.568-28.681,14.239-36.813,29.008l-1.7-1.061
			C474.009,215.852,475.949,199.701,471.7,182.184z"/>
	</g>
	<g>
		<path fill="#FFFFFF" d="M364.001,226.822c1.63,0.521,3.459,0.409,5.141-0.451l67.392-34.693c3.27-1.682,4.575-5.789,2.878-9.064
			c-1.692-3.281-5.795-4.604-9.063-2.917l-67.391,34.688c-3.272,1.684-4.573,5.787-2.88,9.067c0.871,1.688,2.299,2.848,3.929,3.374
			L364.001,226.822z"/>
	</g>
	<g>
		<path fill="#FFFFFF" d="M335.544,202.023c1.111-0.767,1.945-1.914,2.278-3.289l13.224-55.058c0.639-2.671-1.088-5.165-3.825-5.509
			c-2.731-0.344-5.523,1.581-6.164,4.251l-13.228,55.059c-0.637,2.667,1.09,5.164,3.825,5.506c1.402,0.179,2.783-0.198,3.895-0.962
			L335.544,202.023z"/>
	</g>
	<g>
		<path fill="#FFFFFF" d="M217.267,169.031c0.382,1.821,1.341,3.525,2.794,4.729l58.225,48.234c2.823,2.342,6.539,1.628,8.194-1.572
			c1.66-3.199,0.7-7.782-2.125-10.12l-58.224-48.235c-2.827-2.34-6.537-1.629-8.201,1.571c-0.853,1.646-1.047,3.573-0.663,5.396
			V169.031L217.267,169.031z"/>
	</g>
</g>
</svg>
